<?xml version="1.0" encoding="UTF-8" standalone="no"?>
<!-- Created with Inkscape (http://www.inkscape.org/) -->
<svg xmlns:dc="http://purl.org/dc/elements/1.1/" xmlns:cc="http://creativecommons.org/ns#" xmlns:rdf="http://www.w3.org/1999/02/22-rdf-syntax-ns#" xmlns:svg="http://www.w3.org/2000/svg" xmlns="http://www.w3.org/2000/svg" xmlns:sodipodi="http://sodipodi.sourceforge.net/DTD/sodipodi-0.dtd" xmlns:inkscape="http://www.inkscape.org/namespaces/inkscape" id="svg2985" version="1.1" inkscape:version="0.91pre4 r13712" width="88.039642" height="88.086914" sodipodi:docname="Xbox Logo1.svg">
  <title id="title3507">Xbox Logo</title>
  <metadata id="metadata2991">
    <rdf:RDF>
      <cc:Work rdf:about="">
        <dc:format>image/svg+xml</dc:format>
        <dc:type rdf:resource="http://purl.org/dc/dcmitype/StillImage"/>
        <dc:title>Xbox Logo</dc:title>
      </cc:Work>
    </rdf:RDF>
  </metadata>
  <defs id="defs2989"/>
  <sodipodi:namedview pagecolor="#ffffff" bordercolor="#666666" borderopacity="1" objecttolerance="10" gridtolerance="10" guidetolerance="10" inkscape:pageopacity="0" inkscape:pageshadow="2" inkscape:window-width="1920" inkscape:window-height="1017" id="namedview2987" showgrid="false" fit-margin-top="1" fit-margin-left="1" fit-margin-right="1" fit-margin-bottom="1" inkscape:zoom="4.2918149" inkscape:cx="72.80677" inkscape:cy="49.331891" inkscape:window-x="-8" inkscape:window-y="-8" inkscape:window-maximized="1" inkscape:current-layer="svg2985"/>
  <g transform="matrix(0.23106064,0,0,0.23106064,-1.2020454,3.6254332)" id="g4146">
    <path inkscape:connector-curvature="0" id="path4148" d="M 177.14761,360.44418 C 148.46447,357.69705 119.4246,347.39619 94.478206,331.12014 73.573874,317.48131 68.853204,311.87461 68.853204,300.68555 c 0,-22.47524 24.711915,-61.84014 66.992496,-106.71584 24.01246,-25.48631 57.46022,-55.36001 61.0775,-54.55105 7.0309,1.57238 63.25048,56.41053 84.29655,82.2252 33.28077,40.82148 48.58095,74.24535 40.808,89.14682 -5.9087,11.32753 -42.57224,33.4669 -69.50775,41.97242 -22.19984,7.01011 -51.35538,9.9813 -75.37239,7.68108 z M 40.619504,277.31774 c -17.37104,-26.64954 -26.14746,-52.88568 -30.38477,-90.83194 -1.39917,-12.53 -0.8977799,-19.69701 3.17715,-45.41515 5.07882,-32.05404 23.33301,-69.136383 45.26713,-91.957618 9.34191,-9.719732 10.17624,-9.956543 21.56341,-6.120482 13.828357,4.658436 28.595936,14.857457 51.498366,35.56661 l 13.36254,12.082873 -7.2969,8.96431 C 103.93398,141.21897 68.176754,200.20344 54.700944,236.69565 c -7.32599,19.83862 -10.28084,39.75281 -7.12868,48.04363 2.12818,5.59752 0.17339,3.51093 -6.95276,-7.42154 z m 304.915426,4.53255 c 1.71605,-8.37719 -0.4544,-23.76257 -5.5413,-39.28002 -11.01667,-33.60598 -47.83964,-96.12421 -81.65282,-138.63054 L 247.69649,90.558813 259.21235,79.984722 c 15.03631,-13.806637 25.47602,-22.073835 36.74025,-29.094513 8.88881,-5.540156 21.59109,-10.444558 27.05113,-10.444558 3.36626,0 15.21723,12.298726 24.78421,25.720611 14.81725,20.787711 25.71782,45.986978 31.24045,72.219688 3.56833,16.9498 3.8657,53.23126 0.57486,70.13935 -2.70068,13.87582 -8.40314,31.87484 -13.9661,44.08195 -4.16823,9.14657 -14.53521,26.91044 -19.0783,32.69074 -2.33569,2.97175 -2.33761,2.96527 -1.02393,-3.4477 z M 180.21867,34.09975 c -15.60147,-7.922671 -39.6696,-16.427164 -52.96493,-18.715209 -4.66097,-0.802124 -12.61193,-1.249474 -17.6688,-0.994114 -10.969613,0.55394 -10.479662,-0.0197 7.11783,-8.3336656 14.63023,-6.91208104 26.83386,-10.976696 43.40044,-14.455218 18.6362,-3.9130854 53.66559,-3.9590084 72.00507,-0.0944 19.80818,4.174105 43.13297,12.854085 56.27623,20.9423866 l 3.90633,2.403927 -8.96247,-0.452584 c -17.81002,-0.899366 -43.76575,6.295879 -71.63269,19.857459 -8.40538,4.090523 -15.71788,7.357511 -16.25,7.25997 -0.53211,-0.09754 -7.38426,-3.43589 -15.22701,-7.418555 z" style="fill:#107c10;fill-opacity:1"/>
  </g>
</svg>